<?xml version="1.0" encoding="utf-8"?>
<!-- Generator: Adobe Illustrator 21.1.0, SVG Export Plug-In . SVG Version: 6.00 Build 0)  -->
<svg version="1.1" id="Layer_2" xmlns="http://www.w3.org/2000/svg" xmlns:xlink="http://www.w3.org/1999/xlink" x="0px" y="0px"
	 viewBox="0 0 144 31.9" style="enable-background:new 0 0 144 31.9;" xml:space="preserve">
<style type="text/css">
	.st0{fill:#FFFFFF;}
</style>
<g>
	<path class="st0" d="M0,20.7v-9.6h2.5c1.1,0,2,0.4,2.7,1.1c0.7,0.7,1,1.7,1,2.9v1.6c0,1.3-0.3,2.2-1,3c-0.7,0.7-1.6,1.1-2.7,1.1H0z
		 M1.9,12.8v6.4h0.6c0.6,0,1.1-0.2,1.4-0.5s0.4-0.9,0.4-1.8v-1.7c0-0.9-0.1-1.5-0.4-1.9c-0.2-0.4-0.7-0.5-1.3-0.6H1.9z"/>
	<path class="st0" d="M9.6,20.7H7.7v-9.6h1.9V20.7z"/>
	<path class="st0" d="M15.3,18.2c0-0.4-0.1-0.7-0.3-0.9s-0.6-0.4-1.1-0.6c-1-0.4-1.7-0.8-2.1-1.3c-0.4-0.5-0.6-1.1-0.6-1.7
		c0-0.8,0.3-1.5,0.9-1.9c0.6-0.5,1.3-0.7,2.2-0.7c0.6,0,1.1,0.1,1.6,0.4c0.5,0.2,0.8,0.6,1.1,1c0.2,0.5,0.4,1,0.4,1.5h-1.9
		c0-0.4-0.1-0.8-0.3-1c-0.2-0.2-0.5-0.4-0.8-0.4c-0.3,0-0.6,0.1-0.8,0.3c-0.2,0.2-0.3,0.5-0.3,0.8c0,0.3,0.1,0.5,0.3,0.7
		c0.2,0.2,0.6,0.4,1.1,0.7c0.9,0.3,1.6,0.8,2,1.2c0.4,0.5,0.6,1.1,0.6,1.9c0,0.8-0.3,1.5-0.8,2c-0.5,0.5-1.3,0.7-2.2,0.7
		c-0.6,0-1.2-0.1-1.7-0.4c-0.5-0.3-0.9-0.6-1.2-1.1c-0.3-0.5-0.4-1-0.4-1.7h1.9c0,0.6,0.1,1,0.3,1.2c0.2,0.3,0.6,0.4,1.1,0.4
		C15,19.3,15.3,18.9,15.3,18.2z"/>
	<path class="st0" d="M25,17.5c0,1.1-0.4,1.9-0.9,2.5c-0.6,0.6-1.4,0.8-2.4,0.8c-1.1,0-1.9-0.4-2.5-1.1c-0.6-0.7-0.9-1.7-0.9-3v-1.6
		c0-1.3,0.3-2.3,0.9-3c0.6-0.7,1.4-1.1,2.5-1.1c1,0,1.8,0.3,2.4,0.9c0.5,0.6,0.8,1.4,0.9,2.5h-1.9c0-0.7-0.1-1.1-0.3-1.4
		c-0.2-0.3-0.5-0.4-1-0.4c-0.5,0-0.9,0.2-1.1,0.5c-0.2,0.4-0.3,1-0.3,1.8v1.8c0,1,0.1,1.6,0.3,2c0.2,0.4,0.6,0.5,1.1,0.5
		c0.5,0,0.9-0.1,1.1-0.4c0.2-0.2,0.3-0.7,0.3-1.3H25z"/>
	<path class="st0" d="M32.9,16.8c0,1.3-0.3,2.3-0.9,3c-0.6,0.7-1.5,1.1-2.5,1.1c-1.1,0-1.9-0.4-2.5-1.1c-0.6-0.7-0.9-1.7-0.9-3v-1.6
		c0-1.3,0.3-2.3,0.9-3.1c0.6-0.7,1.5-1.1,2.5-1.1c1.1,0,1.9,0.4,2.5,1.1c0.6,0.7,0.9,1.7,0.9,3.1V16.8z M31,15.2
		c0-0.9-0.1-1.5-0.4-1.9c-0.2-0.4-0.6-0.6-1.1-0.6c-0.5,0-0.9,0.2-1.1,0.6c-0.2,0.4-0.4,1-0.4,1.9v1.7c0,0.8,0.1,1.5,0.4,1.9
		c0.2,0.4,0.6,0.6,1.2,0.6c0.5,0,0.9-0.2,1.1-0.6c0.2-0.4,0.4-1,0.4-1.8V15.2z"/>
	<path class="st0" d="M37.3,18.1l1.6-6.9h2.2l-2.8,9.6h-2l-2.7-9.6h2.1L37.3,18.1z"/>
	<path class="st0" d="M46.9,16.6h-3v2.5h3.6v1.6H42v-9.6h5.5v1.6h-3.6V15h3V16.6z"/>
	<path class="st0" d="M51.5,17.2h-1v3.5h-1.9v-9.6h3.1c1,0,1.7,0.3,2.2,0.8c0.5,0.5,0.8,1.2,0.8,2.1c0,1.3-0.5,2.2-1.4,2.7l1.7,3.9
		v0.1h-2.1L51.5,17.2z M50.5,15.6h1.1c0.4,0,0.7-0.1,0.9-0.4c0.2-0.3,0.3-0.6,0.3-1c0-1-0.4-1.4-1.1-1.4h-1.1V15.6z"/>
</g>
</svg>
